<?xml version="1.0" standalone="no"?>
<!DOCTYPE svg PUBLIC "-//W3C//DTD SVG 20010904//EN"
 "http://www.w3.org/TR/2001/REC-SVG-20010904/DTD/svg10.dtd">
<svg version="1.0" xmlns="http://www.w3.org/2000/svg"
 width="700.000000pt" height="700.000000pt" viewBox="0 0 700.000000 700.000000"
 preserveAspectRatio="xMidYMid meet">
<metadata>
Created by potrace 1.11, written by Peter Selinger 2001-2013
</metadata>
<g transform="translate(0.000000,700.000000) scale(0.100000,-0.100000)"
fill="#000000" stroke="none">
<path d="M3305 6939 c-1315 -77 -2442 -1096 -2664 -2409 -156 -924 144 -1874
799 -2529 179 -179 429 -374 496 -387 114 -21 220 85 195 196 -13 58 -27 75
-103 131 -364 266 -626 568 -813 936 -143 280 -227 562 -265 883 -14 121 -14
435 0 565 63 567 308 1084 710 1499 404 416 886 668 1465 763 172 28 594 25
769 -5 278 -48 498 -118 731 -232 646 -316 1137 -921 1324 -1631 16 -63 114
-516 216 -1007 158 -758 184 -898 176 -928 -7 -24 -45 -71 -120 -150 -130
-134 -184 -229 -201 -349 -5 -38 -10 -259 -10 -491 0 -462 -1 -475 -60 -546
-17 -20 -56 -49 -88 -65 l-57 -28 -320 -6 c-347 -6 -359 -8 -492 -71 -176 -83
-323 -260 -380 -460 -16 -58 -30 -372 -19 -433 9 -48 68 -112 116 -126 69 -21
152 11 190 73 17 28 20 51 20 158 0 69 5 157 10 195 21 142 109 256 237 306
55 21 77 23 383 29 297 6 330 9 383 28 190 70 329 216 393 412 16 49 18 107
21 510 2 250 6 470 9 488 4 26 34 64 123 158 158 166 200 251 201 405 0 48
-50 305 -180 930 -205 981 -224 1061 -287 1242 -335 964 -1102 1661 -2068
1881 -153 35 -293 54 -480 66 -172 11 -167 11 -360 -1z"/>
<path d="M3692 5010 c-18 -11 -41 -34 -52 -52 -11 -18 -144 -404 -295 -858
-298 -893 -298 -893 -252 -961 12 -19 43 -44 68 -57 66 -33 120 -23 175 32 40
40 45 54 324 890 304 912 299 893 252 955 -52 70 -150 93 -220 51z"/>
<path d="M2493 4633 c-32 -17 -491 -422 -545 -480 -29 -31 -52 -100 -42 -129
3 -11 11 -32 16 -47 7 -18 117 -123 286 -273 288 -256 314 -273 386 -260 74
14 149 123 131 189 -18 63 -40 88 -217 242 -104 92 -188 170 -186 175 2 4 87
83 189 174 118 105 192 178 200 199 30 71 7 155 -52 198 -44 31 -123 36 -166
12z"/>
<path d="M4362 4623 c-82 -40 -110 -136 -66 -224 7 -14 96 -99 199 -189 102
-90 184 -167 183 -171 -2 -4 -84 -79 -182 -166 -99 -87 -189 -173 -200 -192
-45 -78 -14 -181 68 -220 50 -25 93 -27 142 -6 46 19 550 468 571 508 22 43
21 107 -3 148 -24 41 -514 482 -566 510 -45 23 -102 24 -146 2z"/>
</g>
</svg>
