<svg version="1.1" id="Layer_1" xmlns="http://www.w3.org/2000/svg" xmlns:xlink="http://www.w3.org/1999/xlink" x="0px" y="0px" viewBox="0 0 128 128" style="enable-background:new 0 0 128 128;" xml:space="preserve">

<g>
	<g>
		<path d="M118.9,74.5c0,0-5.8-31.9-7.7-37.1c-7.1-20.3-27-34.6-50-33.4c-25.3,1.4-45.9,22-47.1,47.4
			c-0.9,18.3,8,34.6,22,44c0.3,0.2,0.7,0.5,1,0.7c7,5.2,11,13.7,11,22.4v5.4c0,1.7,1.3,3,3,3h36v-7c0-5.5,4.5-10,10-10h8
			c4.4,0,8-3.6,8-8V87.5c0-1.6,0.6-3.1,1.7-4.2l2.8-2.8C119,78.9,119.5,76.6,118.9,74.5z" style="fill:#FFFFFF;"></path>
	</g>
	<g>
		<g>
			<g>
				<path d="M81.1,65.1c-0.8,0-1.6-0.3-2.2-1c-1.1-1.2-1-3.1,0.2-4.2l6.6-5.8l-6.6-5.8c-1.2-1.1-1.3-3-0.2-4.2
					c1.1-1.2,3-1.3,4.2-0.2l9.1,8.1c0.6,0.6,1,1.4,1,2.2s-0.4,1.7-1,2.2l-9.1,8.1C82.6,64.8,81.9,65.1,81.1,65.1z" style="fill:#71C2FF;"></path>
			</g>
			<g>
				<path d="M46.9,65.1c-0.7,0-1.4-0.2-2-0.8l-9.1-8.1c-0.6-0.6-1-1.4-1-2.2s0.4-1.7,1-2.2l9.1-8.1
					c1.2-1.1,3.1-1,4.2,0.2c1.1,1.2,1,3.1-0.2,4.2L42.3,54l6.6,5.8c1.2,1.1,1.3,3,0.2,4.2C48.5,64.7,47.7,65.1,46.9,65.1z" style="fill:#71C2FF;"></path>
			</g>
			<g>
				<path d="M59,72c-0.3,0-0.6,0-0.9-0.2c-1.6-0.5-2.4-2.2-1.9-3.8l10-30c0.5-1.6,2.2-2.4,3.8-1.9
					c1.6,0.5,2.4,2.2,1.9,3.8l-10,30C61.4,71.2,60.3,72,59,72z" style="fill:#71C2FF;"></path>
			</g>
		</g>
	</g>
	<g>
		<path d="M87,127c-1.7,0-3-1.3-3-3v-4c0-7.2,5.8-13,13-13h8c2.8,0,5-2.2,5-5V87.5c0-2.4,0.9-4.6,2.5-6.3l2.8-2.8
			c0.8-0.8,1-1.9,0.7-3c0-0.1-0.1-0.2-0.1-0.3l-6.4-30.7c-2.9-14.2-12.2-26.3-24.7-32.5c-7.3-3.6-15.4-5.3-23.6-4.8
			C37.6,8.4,18.2,28,17.1,51.6C16.2,68.2,24,83.7,37.7,93c1.4,0.9,1.7,2.8,0.8,4.2c-0.9,1.4-2.8,1.7-4.2,0.8
			C18.8,87.5,10.1,70,11.1,51.3c0.6-13,6.1-25.3,15.4-34.6C35.7,7.4,47.9,1.8,60.9,1.1c9.2-0.5,18.4,1.3,26.6,5.4
			c14.1,7,24.5,20.7,27.9,36.7l6.4,30.6c0.9,3.1,0.1,6.5-2.2,8.8l-2.8,2.8c-0.5,0.6-0.8,1.3-0.8,2.1V102c0,6.1-4.9,11-11,11h-8
			c-3.9,0-7,3.1-7,7v4C90,125.7,88.7,127,87,127z" style="fill:#444B54;"></path>
	</g>
</g>
</svg>